<svg id="robocza" xmlns="http://www.w3.org/2000/svg" viewBox="0 0 1249.05 400"><defs><style>.cls-1{fill:#be1622;}.cls-2{fill:#fff;}.cls-3{fill:#6dc43a;}</style></defs><title>logo_w</title><circle class="cls-1" cx="2039.44" cy="3258.21"/><circle class="cls-1" cx="689.44" cy="3394.73"/><path class="cls-2" d="M497.25,220.8H539.9v50.12a46.55,46.55,0,0,1,29.46-10.11c33.63,0,54.74,25.06,54.74,60.9,0,35.61-23.74,60.9-57.6,60.9-15.17,0-25.28-5.93-29.68-10.33v7.48H497.25V220.8ZM559.9,345.89c13.41,0,21.54-9.45,21.54-24.18,0-14.29-7.91-24.4-21.54-24.4-12.75,0-21.32,9-21.32,24.4C538.58,334.9,545.84,345.89,559.9,345.89Z" transform="translate(-100.56 -101.79)"/><path class="cls-2" d="M639.87,338.41V263.67h42.65V332c0,8.79,5.28,13,12.31,13,8.35,0,12.31-5.72,12.31-12.31v-69h42.65V379.75H708.24v-11c-4.18,5.93-14.73,13.85-29,13.85C651.74,382.6,639.87,365.24,639.87,338.41Z" transform="translate(-100.56 -101.79)"/><path class="cls-2" d="M786.66,340.83C793.47,345.45,802,349,811.5,349c5.72,0,7.91-2,7.91-4.17,0-9.67-52.32-5.5-52.32-46.39,0-22.86,20.66-37.59,47.48-37.59,21.54,0,35.61,9.67,43.75,19.13L830.85,301.7c-4.18-3.74-9.67-7.47-17.15-7.47-4.62,0-6.6,2-6.6,4,0,11.43,53,6.81,53,45.29,0,25.72-20,39.13-48.36,39.13-21.76,0-40.89-9.67-48.36-18.47Z" transform="translate(-100.56 -101.79)"/><path class="cls-2" d="M891.08,419.1l15.61-43.75L863.6,263.67h45.73l16.71,60,17.81-60h44.4L931.09,419.1h-40Z" transform="translate(-100.56 -101.79)"/><path class="cls-3" d="M1009.12,333.8A24.36,24.36,0,0,1,1034,358.42c0,13.19-10.55,24.18-24.84,24.18s-24.84-11-24.84-24.18A24.36,24.36,0,0,1,1009.12,333.8Z" transform="translate(-100.56 -101.79)"/><path class="cls-3" d="M1219.2,379.75h-42.65V310.49c0-7.26-4.4-12.09-11.21-12.09-6.59,0-10.55,5.28-10.55,12.09v69.25h-42.43V311.37c0-8.13-4-13-11-13-6.59,0-10.55,4-10.55,12.31v69h-42.65V263.67h41.55v11c4-6.16,12.53-13.85,28.14-13.85,12.75,0,22.64,5.06,29.24,13.63,7-7.91,17.37-13.63,32.32-13.63,26.38,0,39.79,20,39.79,44.19v74.75Z" transform="translate(-100.56 -101.79)"/><path class="cls-3" d="M1291.13,261.11c38.25,0,58.48,23.74,58.48,64.42,0,2.42-.22,5.49-0.44,7.69h-72.54c2.2,9,9.67,14.07,20.22,14.07,10.77,0,18.69-7,20.88-10.33l29,20.22c-2.64,5.72-18.9,25.72-50.56,25.72-39.79,0-63.31-28.58-63.31-62.43C1232.87,287.49,1255.51,261.11,1291.13,261.11Zm15.17,46.17a14.41,14.41,0,0,0-28.58,0h28.58Z" transform="translate(-100.56 -101.79)"/><g id="bg"><polygon class="cls-2" points="277.69 99.17 178.51 99.17 178.51 0 277.69 99.17"/></g><polygon class="cls-2" points="158.68 158.68 0 158.68 158.68 0 158.68 158.68"/><polygon class="cls-3" points="343.8 165.29 300.83 122.31 109.09 314.05 0 204.8 0 290.91 109.09 400 343.8 165.29"/><polygon class="cls-2" points="33.06 99.17 52.89 79.34 0 79.34 33.06 99.17"/><polygon class="cls-2" points="72.73 59.5 92.56 39.67 0 39.67 72.73 59.5"/><polygon class="cls-2" points="0 0 112.4 19.84 132.77 0.1 0 0"/><g id="bg-2" data-name="bg"><polygon class="cls-2" points="0 178.51 99.17 178.51 99.17 277.69 0 178.51"/></g><polygon class="cls-2" points="178.51 178.51 178.51 119.01 277.69 119.01 119.01 277.69 119.01 178.51 178.51 178.51"/></svg>