<svg width="154" height="46" viewBox="0 0 154 46" fill="none" xmlns="http://www.w3.org/2000/svg">
<path d="M29.4664 14.7855C29.4664 6.61917 22.8694 0 14.7332 0C6.59693 0 0 6.61917 0 14.7855V22.1453H0.00239583C0.00119792 27.3531 0 43.0426 0 43.0426C0 44.6764 1.31891 46 2.94688 46C4.57484 46 5.89375 44.6764 5.89375 43.0426V29.5062C5.89375 27.8724 7.21266 26.5488 8.84062 26.5488C10.4686 26.5488 11.7875 27.8724 11.7875 29.5062V38.246C11.7875 39.8797 13.1064 41.2033 14.7344 41.2033C16.3623 41.2033 17.6812 39.8797 17.6812 38.246L17.6884 31.8059C17.7891 30.2647 19.066 29.0457 20.6281 29.0457C22.189 29.0457 23.466 30.2647 23.5678 31.8059H23.575V34.2379C23.575 35.8717 24.8939 37.1953 26.5219 37.1953C28.1498 37.1953 29.4688 35.8717 29.4688 34.2379C29.4688 34.2379 29.4676 25.4645 29.4664 22.1465H29.4688V14.7855H29.4664ZM22.2537 20.8673C21.6691 22.1188 20.1502 24.1529 16.4378 24.2707C10.8244 24.4474 8.36146 20.2987 7.40552 17.8799C7.22823 17.4327 7.75771 17.0396 8.13026 17.3438C10.3572 19.1579 15.3705 22.2799 21.6883 20.2266C22.0752 20.1004 22.4274 20.4959 22.2537 20.8673Z" fill="#A30050"/>
<path d="M49.8591 14.8135C45.7191 14.8135 42.4883 18.0245 42.4883 22.1155C42.4883 26.239 45.7191 29.4488 49.8591 29.4488C51.9603 29.4488 54.1872 28.4726 55.8187 26.8677L58.296 29.6375C56.038 31.9349 52.8072 33.4148 49.6399 33.4148C43.1783 33.4148 38.1914 28.5363 38.1914 22.178C38.1914 15.8834 43.2406 11.0675 49.7956 11.0675C52.9318 11.0675 56.1314 12.4212 58.2637 14.5923L55.8176 17.6771C54.2507 15.9159 52.0237 14.8135 49.8591 14.8135Z" fill="#A30050"/>
<path d="M76.2697 22.7141V33.2272H72.1609V23.9103C72.1609 21.5492 70.7497 20.1018 68.4282 20.1018C65.6681 20.1331 64.0054 22.1792 64.0054 24.949V33.2272H59.9277V9.87251H64.0054V19.5981C65.1974 17.3008 67.2985 16.2621 70.0585 16.2308C73.917 16.2296 76.2697 18.7169 76.2697 22.7141Z" fill="#A30050"/>
<path d="M83.2646 11.5713C83.2646 12.8937 82.3554 13.8374 81.0688 13.8374C79.7835 13.8374 78.873 12.8937 78.873 11.5713C78.873 10.2489 79.7823 9.30519 81.0688 9.30519C82.3542 9.30519 83.2646 10.2501 83.2646 11.5713ZM83.1077 16.3872V33.2273H79.03V16.3872H83.1077Z" fill="#A30050"/>
<path d="M88.0314 16.3871L92.4218 29.1975L96.7187 16.3871H100.828L94.4295 33.2272H90.2272L83.7656 16.4196L88.0314 16.3871Z" fill="#A30050"/>
<path d="M110.801 33.2272V31.1811C109.641 32.661 107.759 33.4159 105.375 33.4159C101.768 33.4159 99.5098 31.1811 99.5098 28.1913C99.5098 25.0752 101.799 23.1554 105.877 23.1241H110.769V22.6829C110.769 20.7318 109.484 19.5669 106.974 19.5669C105.406 19.5669 103.712 20.1018 101.987 21.1405L100.512 18.3082C102.927 16.9545 104.809 16.2308 107.883 16.2308C112.275 16.2308 114.752 18.4657 114.783 22.2117L114.814 33.2284H110.801V33.2272ZM110.77 27.3726V25.8615H106.536C104.371 25.8615 103.368 26.4601 103.368 27.9388C103.368 29.355 104.497 30.2674 106.347 30.2674C108.7 30.2686 110.55 29.0087 110.77 27.3726Z" fill="#A30050"/>
<path d="M133.762 9.87251V33.2272H129.684V30.5199C128.492 32.3772 126.548 33.4159 124.038 33.4159C119.239 33.4159 116.041 29.8899 116.041 24.7602C116.041 19.6606 119.241 16.2308 123.945 16.2308C126.517 16.2308 128.461 17.2695 129.684 19.1581V9.87251H133.762ZM129.684 24.854C129.684 21.8329 127.74 19.7231 124.916 19.7231C122.125 19.7231 120.18 21.863 120.149 24.854C120.18 27.8751 122.093 29.9849 124.916 29.9849C127.74 29.9849 129.684 27.8763 129.684 24.854Z" fill="#A30050"/>
<path d="M153.332 24.7914C153.332 29.9223 149.756 33.3846 144.519 33.3846C139.218 33.3846 135.643 29.9223 135.643 24.7914C135.643 19.693 139.218 16.262 144.519 16.262C149.756 16.262 153.332 19.6918 153.332 24.7914ZM139.751 24.8539C139.751 27.875 141.696 29.9536 144.519 29.9536C147.279 29.9536 149.223 27.8762 149.223 24.8539C149.223 21.8329 147.279 19.7543 144.519 19.7543C141.696 19.7555 139.751 21.8329 139.751 24.8539Z" fill="#A30050"/>
</svg>
